# AST/ASF file generated using VICON BodyLanguage
# -----------------------------------------------
:version 1.10
:name VICON
:units
  mass 1.0
  length 0.45
  angle deg
:documentation
   .ast/.asf automatically generated from VICON data using
   VICON BodyBuilder and BodyLanguage model FoxedUp or BRILLIANT.MOD
:root
   order TX TY TZ RX RY RZ
   axis XYZ
   position 0 0 0  
   orientation 0 0 0 
:bonedata
  begin
     id 1 
     name lhipjoint
     direction 0.541323 -0.757556 0.364798 
     length 2.47576 
     axis 0 0 0  XYZ
  end
  begin
     id 2 
     name lfemur
     direction 0.34202 -0.939693 0  
     length 7.46493  
     axis 0 0 20  XYZ
    dof rx ry rz
    limits (-160.0 20.0)
           (-70.0 70.0)
           (-60.0 70.0)
  end
  begin
     id 3 
     name ltibia
     direction 0.34202 -0.939693 0   
     length 7.73805   
     axis 0 0 20   XYZ
    dof rx
    limits (-10.0 170.0)
  end
  begin
     id 4 
     name lfoot
     direction 0.107174 -0.294458 0.949636   
     length 2.25864   
     axis -90 7.62852e-016 20   XYZ
    dof rx rz
    limits (-45.0 90.0)
           (-70.0 20.0)
  end
  begin
     id 5 
     name ltoes
     direction 1.53606e-011 -4.21934e-011 1   
     length 1.12451   
     axis -90 7.62852e-016 20   XYZ
    dof rx
    limits (-90.0 20.0)
  end
  begin
     id 6 
     name rhipjoint
     direction -0.524745 -0.766967 0.36933   
     length 2.44538  
     axis 0 0 0  XYZ 
  end
  begin
     id 7 
     name rfemur
     direction -0.34202 -0.939693 0   
     length 7.61604   
     axis 0 0 -20   XYZ
    dof rx ry rz
    limits (-160.0 20.0)
           (-70.0 70.0)
           (-70.0 60.0)
  end
  begin
     id 8 
     name rtibia
     direction -0.34202 -0.939693 0   
     length 7.61056   
     axis 0 0 -20   XYZ
    dof rx
    limits (-10.0 170.0)
 end
 begin
     id 9 
     name rfoot
     direction -0.12616 -0.346623 0.929482   
     length 2.46372  
     axis -90 -7.62852e-016 -20   XYZ
    dof rx rz
    limits (-45.0 90.0)
           (-20.0 70.0)
  end
  begin
     id 10 
     name rtoes
     direction -1.53531e-011 -4.22004e-011 1   
     length 1.21611   
     axis -90 -7.62852e-016 -20   XYZ
    dof rx
    limits (-90.0 20.0)
  end
  begin
     id 11 
     name lowerback
     direction -0.000778023 0.997293 -0.0735223   
     length 2.06139   
     axis 0 0 0   XYZ
    dof rx ry rz
    limits (-20.0 45.0)
           (-30.0 30.0)
           (-30.0 30.0)
  end
  begin
     id 12 
     name upperback
     direction 0.0222598 0.999722 -0.0078355   
     length 2.06383   
     axis 0 0 0   XYZ
    dof rx ry rz
    limits (-20.0 45.0)
           (-30.0 30.0)
           (-30.0 30.0)
  end
  begin
     id 13 
     name thorax
     direction 0.0219654 0.999405 0.0265994   
     length 2.07163   
     axis 0 0 0   XYZ
    dof rx ry rz
    limits (-20.0 45.0)
           (-30.0 30.0)
           (-30.0 30.0)
  end
  begin
     id 14 
     name lowerneck
     direction 0.0213282 0.988147 0.15202   
     length 1.75969   
     axis 0 0 0   XYZ
    dof rx ry rz
    limits (-20.0 45.0)
           (-30.0 30.0)
           (-30.0 30.0)
  end
  begin
     id 15 
     name upperneck
     direction -0.0546456 0.982624 -0.177379   
     length 1.79244   
     axis 0 0 0   XYZ
    dof rx ry rz
    limits (-20.0 45.0)
           (-30.0 30.0)
           (-30.0 30.0)
  end
  begin
     id 16
     name head
     direction -0.0199987 0.996855 -0.076686  
     length 1.80555  
     axis 0 0 0   XYZ
    dof rx ry rz
    limits (-20.0 45.0)
           (-30.0 30.0)
           (-30.0 30.0)
  end
  begin
     id 17 
     name lclavicle
     direction 0.929565 0.363219 -0.063096  
     length 3.55722  
     axis 0 0 0   XYZ
    dof ry rz
    limits (-20.0 10.0)
           (0.0 20.0)
  end
  begin
     id 18 
     name lhumerus
     direction 1 -4.48993e-011 -2.36203e-027   
     length 4.92785   
     axis 180 -30 -90   XYZ
    dof rx ry rz
    limits (-60.0 90.0)
           (-90.0 90.0)
           (-90.0 90.0)
  end
  begin
     id 19
     name lradius
     direction 1 -4.48947e-011 2.02997e-027   
     length 3.44052   
     axis 180 -30 -90   XYZ
    dof rx
    limits (-10.0 170.0)
  end
  begin
     id 20
     name lwrist
     direction 1 -4.48962e-011 1.45991e-027   
     length 1.72026   
     axis 1.49639e-024 90 90   XYZ
    dof ry
    limits (-180.0 0.0)
 end
  begin
     id 21 
     name lhand
     direction 1 -4.48984e-011 2.91906e-027   
     length 0.654326   
     axis -1.863e-015 90 90   XYZ
    dof rx rz
    limits (-90.0 90.0)
           (-45.0 45.0)
  end
  begin
     id 22 
     name lfingers
     direction 1 -4.48961e-011 5.83968e-027   
     length 0.527534   
     axis -3.72598e-015 90 90   XYZ
    dof rx
    limits (0.0 90.0)
  end
  begin
     id 23
     name lthumb
     direction 0.707107 -6.34963e-011 0.707107   
     length 0.757437   
     axis -90 45 -6.68868e-015   XYZ
    dof rx rz
    limits (-45.0 45.0)
           (-45.0 45.0)
  end
  begin
     id 24 
     name rclavicle
     direction -0.902944 0.422599 -0.0781198   
     length 3.54432  
     axis 0 0 0   XYZ 
    dof ry rz
    limits (-10.0 20.0)
           (-20.0 0.0)
  end
  begin
     id 25 
     name rhumerus
     direction -1 -4.48953e-011 -4.75835e-028  
     length 5.09181   
     axis 180 30 90   XYZ
    dof rx ry rz
    limits (-90.0 60.0)
           (-90.0 90.0)
           (-90.0 90.0)
  end
  begin
     id 26 
     name rradius
     direction -1 -4.48986e-011 -3.25889e-027   
     length 3.49865   
     axis 180 30 90   XYZ
    dof rx
    limits (-10.0 170.0)
  end
  begin
     id 27 
     name rwrist
     direction -1 -4.48963e-011 1.45989e-027   
     length 1.74933   
     axis 1.49639e-024 -90 -90   XYZ
    dof ry
    limits (-180.0 0.0)
  end
  begin
     id 28
     name rhand
     direction -1 -4.49003e-011 2.91844e-027   
     length 0.66641   
     axis -1.863e-015 -90 -90   XYZ
    dof rx rz
    limits (-90.0 90.0)
           (-45.0 45.0)
  end
  begin
     id 29
     name rfingers
     direction -1 -4.48973e-011 5.83886e-027   
     length 0.537277   
     axis -3.72598e-015 -90 -90   XYZ
    dof rx
    limits (0.0 90.0)
  end
  begin
     id 30
     name rthumb
     direction -0.707107 -6.34976e-011 0.707107   
     length 0.771425   
     axis -90 -45 6.68868e-015   XYZ
    dof rx rz
    limits (-45.0 45.0)
           (-45.0 45.0)
  end
:hierarchy
  begin
    root lhipjoint rhipjoint lowerback
    lhipjoint lfemur
    lfemur ltibia
    ltibia lfoot
    lfoot ltoes
    rhipjoint rfemur
    rfemur rtibia
    rtibia rfoot
    rfoot rtoes
    lowerback upperback
    upperback thorax
    thorax lowerneck lclavicle rclavicle
    lowerneck upperneck
    upperneck head
    lclavicle lhumerus
    lhumerus lradius
    lradius lwrist
    lwrist lhand lthumb
    lhand lfingers
    rclavicle rhumerus
    rhumerus rradius
    rradius rwrist
    rwrist rhand rthumb
    rhand rfingers
  end

#!OML:ASF H:\LiuWeirdWalks\Patient Classification 1\Patient 1\Session 1\male.ASF
:FULLY-SPECIFIED
:DEGREES
254
root 1.29732 17.8545 -29.1235 1.43218 3.47275 -2.85774
lowerback 1.61723 -0.379771 -0.817076
upperback 1.14929 -0.518489 3.64751
thorax 0.313837 -0.277223 4.21964
lowerneck -26.6669 -0.527336 8.76458
upperneck 39.9455 -0.496558 -10.8655
head 20.1392 -0.407495 -7.25516
rclavicle -4.96962e-017 -7.95139e-015
rhumerus -24.2529 -24.8938 -6.67581
rradius 32.3113
rwrist -0.996508
rhand -17.1222 -3.66301
rfingers 7.12502
rthumb 9.11747 -33.4459
lclavicle -4.96962e-017 -7.95139e-015
lhumerus -16.223 21.0268 15.4947
lradius 31.4107
lwrist -5.78627
lhand -8.88937 5.69342
lfingers 7.12502
lthumb 17.0529 34.965
rfemur -8.3674 -3.53845 17.9757
rtibia 30.2672
rfoot -13.0886 -25.4732
rtoes -2.71614
lfemur -6.09743 1.32232 -18.6605
ltibia 28.0923
lfoot -14.3784 20.6158
ltoes -5.77684
255
root 1.30136 17.8525 -29.1265 1.42789 3.55776 -2.87436
lowerback 1.63737 -0.423864 -0.773426
upperback 1.19175 -0.577766 3.68936
thorax 0.350899 -0.307807 4.23915
lowerneck -26.6592 -0.451464 8.84125
upperneck 39.7935 -0.370001 -10.9736
head 20.0623 -0.369921 -7.27839
rclavicle 8.24956e-015 1.27222e-014
rhumerus -23.9429 -24.8772 -6.58095
rradius 32.3415
rwrist -1.08165
rhand -17.1241 -3.66234
rfingers 7.12502
rthumb 9.1156 -33.4453
lclavicle 8.24956e-015 1.27222e-014
lhumerus -16.2822 21.1403 15.2717
lradius 31.4124
lwrist -5.7723
lhand -8.65794 5.49076
lfingers 7.12502
lthumb 17.2757 34.7429
rfemur -8.38178 -3.58959 17.9788
rtibia 30.3058
rfoot -13.1064 -25.498
rtoes -2.71241
lfemur -6.14643 1.29462 -18.6539
ltibia 28.1502
lfoot -14.4011 20.5781
ltoes -5.78784
256
root 1.30511 17.8506 -29.1296 1.42214 3.65817 -2.88187
lowerback 1.66377 -0.434503 -0.716589
upperback 1.22164 -0.591693 3.68755
thorax 0.367249 -0.314942 4.2053
lowerneck -26.6137 -0.438488 8.92394
upperneck 39.6577 -0.368217 -11.026
head 19.9609 -0.371346 -7.29949
rclavicle 1.78409e-014 -3.33958e-014
rhumerus -23.8117 -24.8565 -6.45277
rradius 32.3722
rwrist -1.13527
rhand -17.1122 -3.65433
rfingers 7.12502
rthumb 9.1271 -33.4368
lclavicle 1.78409e-014 -3.33958e-014
lhumerus -16.1881 21.1838 15.1129
lradius 31.3828
lwrist -5.77728
lhand -8.47799 5.30008
lfingers 7.12502
lthumb 17.4489 34.537
rfemur -8.39338 -3.64522 17.9735
rtibia 30.3482
rfoot -13.1391 -25.5307
rtoes -2.69185
lfemur -6.19441 1.26006 -18.6552
ltibia 28.2041
lfoot -14.4167 20.5312
ltoes -5.80083
257
root 1.30877 17.8486 -29.1327 1.41358 3.76642 -2.86978
lowerback 1.69834 -0.430179 -0.665051
upperback 1.22244 -0.584721 3.65901
thorax 0.347241 -0.310728 4.14658
lowerneck -26.4982 -0.453714 9.02317
upperneck 39.5376 -0.418276 -11.0659
head 19.8401 -0.387806 -7.32603
rclavicle 4.42296e-015 -2.06736e-014
rhumerus -23.7817 -24.7615 -6.31549
rradius 32.403
rwrist -1.18752
rhand -17.1143 -3.65919
rfingers 7.12502
rthumb 9.12503 -33.4418
lclavicle 4.42296e-015 -2.06736e-014
lhumerus -16.0394 21.1251 14.9882
lradius 31.3381
lwrist -5.7778
lhand -8.3637 5.14288
lfingers 7.12502
lthumb 17.5589 34.37
rfemur -8.40157 -3.70469 17.947
rtibia 30.3956
rfoot -13.1686 -25.5722
rtoes -2.68381
lfemur -6.23423 1.21806 -18.6784
ltibia 28.2501
lfoot -14.4259 20.4841
ltoes -5.80403
258
root 1.31268 17.8465 -29.1351 1.40128 3.88017 -2.82259
lowerback 1.74508 -0.356858 -0.600494
upperback 1.19932 -0.484485 3.5439
thorax 0.287792 -0.258606 3.98945
lowerneck -26.3429 -0.605549 9.07814
upperneck 39.4724 -0.712944 -10.9785
head 19.6958 -0.486673 -7.33315
rclavicle -1.04362e-015 7.95139e-015
rhumerus -24.0808 -24.6428 -6.09101
rradius 32.4557
rwrist -1.23046
rhand -17.1161 -3.6729
rfingers 7.12502
rthumb 9.12331 -33.4556
lclavicle -1.04362e-015 7.95139e-015
lhumerus -15.5986 20.9743 14.9627
lradius 31.248
lwrist -5.7974
lhand -8.30769 5.03732
lfingers 7.12502
lthumb 17.6128 34.2596
rfemur -8.4028 -3.77506 17.8782
rtibia 30.4515
rfoot -13.2068 -25.6081
rtoes -2.68051
lfemur -6.25819 1.16465 -18.7434
ltibia 28.2829
lfoot -14.432 20.4438
ltoes -5.79423
259
root 1.31672 17.8443 -29.1374 1.38749 3.99599 -2.75565
lowerback 1.80958 -0.328221 -0.5901
upperback 1.18804 -0.444848 3.48185
thorax 0.236465 -0.237713 3.91905
lowerneck -26.255 -0.695372 9.07015
upperneck 39.3874 -0.865327 -10.9299
head 19.5875 -0.5463 -7.32071
rclavicle 1.32689e-014 1.98785e-014
rhumerus -24.1638 -24.5552 -5.94529
rradius 32.4727
rwrist -1.24702
rhand -17.1386 -3.7162
rfingers 7.12502
rthumb 9.10156 -33.4998
lclavicle 1.32689e-014 1.98785e-014
lhumerus -15.3411 20.9148 14.9274
lradius 31.1596
lwrist -5.84348
lhand -8.27179 4.96765
lfingers 7.12502
lthumb 17.6473 34.1868
rfemur -8.40194 -3.84626 17.7867
rtibia 30.513
rfoot -13.2419 -25.6467
rtoes -2.68953
lfemur -6.27227 1.10185 -18.8324
ltibia 28.3057
lfoot -14.4401 20.4087
ltoes -5.77675
260
root 1.32104 17.842 -29.1394 1.37522 4.12124 -2.66588
lowerback 1.87794 -0.305317 -0.601093
upperback 1.1724 -0.413087 3.41929
thorax 0.179336 -0.220807 3.86037
lowerneck -26.1632 -0.785747 9.0544
upperneck 39.3078 -1.00954 -10.8907
head 19.4839 -0.605058 -7.3106
rclavicle 5.66536e-015 1.27222e-014
rhumerus -24.2348 -24.4677 -5.81979
rradius 32.4789
rwrist -1.25254
rhand -17.1796 -3.78347
rfingers 7.12502
rthumb 9.06202 -33.5688
lclavicle 5.66536e-015 1.27222e-014
lhumerus -15.0937 20.8709 14.916
lradius 31.0602
lwrist -5.89599
lhand -8.24843 4.9287
lfingers 7.12502
lthumb 17.6698 34.1458
rfemur -8.39834 -3.92251 17.6679
rtibia 30.5773
rfoot -13.2746 -25.687
rtoes -2.70889
lfemur -6.28184 1.03299 -18.9483
ltibia 28.3232
lfoot -14.4502 20.3719
ltoes -5.74755
261
root 1.32542 17.8397 -29.1415 1.36537 4.24636 -2.5833
lowerback 1.9322 -0.249811 -0.585383
upperback 1.16139 -0.337771 3.32935
thorax 0.131474 -0.182004 3.75725
lowerneck -26.0709 -0.941232 9.01174
upperneck 39.2285 -1.26138 -10.8083
head 19.3612 -0.704724 -7.29485
rclavicle 3.77691e-015 -1.27222e-014
rhumerus -24.4427 -24.4289 -5.65875
rradius 32.482
rwrist -1.23015
rhand -17.2337 -3.86863
rfingers 7.12502
rthumb 9.00988 -33.6562
lclavicle 3.77691e-015 -1.27222e-014
lhumerus -14.7127 20.8163 14.9694
lradius 30.944
lwrist -5.96627
lhand -8.2443 4.92289
lfingers 7.12502
lthumb 17.6738 34.1397
rfemur -8.39645 -3.98513 17.5592
rtibia 30.6372
rfoot -13.2943 -25.7424
rtoes -2.74413
lfemur -6.29804 0.967981 -19.0555
ltibia 28.3463
lfoot -14.4673 20.3307
ltoes -5.71006
262
root 1.32986 17.8377 -29.1439 1.3575 4.37695 -2.52154
lowerback 1.9711 -0.277839 -0.60187
upperback 1.18823 -0.375589 3.34137
thorax 0.140074 -0.201431 3.77989
lowerneck -26.0493 -0.946679 9.00072
upperneck 39.1122 -1.23646 -10.8703
head 19.2872 -0.712394 -7.30282
rclavicle -1.21756e-014 7.95139e-016
rhumerus -24.2646 -24.4678 -5.62817
rradius 32.4294
rwrist -1.16603
rhand -17.2917 -3.96978
rfingers 7.12502
rthumb 8.95384 -33.7598
lclavicle -1.21756e-014 7.95139e-016
lhumerus -14.667 20.9056 14.9672
lradius 30.8598
lwrist -6.04683
lhand -8.23412 4.92571
lfingers 7.12502
lthumb 17.6836 34.1416
rfemur -8.39239 -4.03144 17.476
rtibia 30.6885
rfoot -13.3215 -25.8112
rtoes -2.75991
lfemur -6.32649 0.906263 -19.1382
ltibia 28.3833
lfoot -14.491 20.2812
ltoes -5.66399
263
root 1.33464 17.8358 -29.1463 1.34901 4.50532 -2.49117
lowerback 1.99254 -0.308675 -0.577659
upperback 1.20455 -0.416426 3.36312
thorax 0.147681 -0.22207 3.78956
lowerneck -25.9897 -0.946577 9.02428
upperneck 38.9995 -1.19415 -10.984
head 19.2075 -0.715036 -7.3385
rclavicle -2.83268e-015 -4.77083e-015
rhumerus -24.0878 -24.4852 -5.60816
rradius 32.3702
rwrist -1.09533
rhand -17.3276 -4.06084
rfingers 7.12502
rthumb 8.91926 -33.8523
lclavicle -2.83268e-015 -4.77083e-015
lhumerus -14.6569 20.943 14.9688
lradius 30.7962
lwrist -6.0978
lhand -8.23446 4.95866
lfingers 7.12502
lthumb 17.6832 34.1746
rfemur -8.38475 -4.06063 17.4282
rtibia 30.728
rfoot -13.3506 -25.8888
rtoes -2.76494
lfemur -6.36767 0.846282 -19.1869
ltibia 28.4413
lfoot -14.5228 20.2327
ltoes -5.60314
264
root 1.3397 17.8338 -29.1488 1.34095 4.63141 -2.4966
lowerback 1.99912 -0.3389 -0.509377
upperback 1.22755 -0.456066 3.39377
thorax 0.170101 -0.242114 3.78337
lowerneck -25.9708 -0.934669 9.07086
upperneck 38.9025 -1.13522 -11.1288
head 19.1519 -0.710918 -7.39537
rclavicle 1.30701e-014 -1.11319e-014
rhumerus -23.9174 -24.5245 -5.59787
rradius 32.3042
rwrist -1.0075
rhand -17.3524 -4.15178
rfingers 7.12502
rthumb 8.89534 -33.9443
lclavicle 1.30701e-014 -1.11319e-014
lhumerus -14.6523 20.9924 14.981
lradius 30.7427
lwrist -6.12392
lhand -8.24053 5.01127
lfingers 7.12502
lthumb 17.6774 34.2277
rfemur -8.37674 -4.07128 17.4218
rtibia 30.7588
rfoot -13.3904 -25.9785
rtoes -2.74653
lfemur -6.42347 0.791271 -19.1956
ltibia 28.5188
lfoot -14.5623 20.1804
ltoes -5.54897
265
root 1.34522 17.8317 -29.1511 1.33079 4.75347 -2.51743
lowerback 1.99952 -0.374568 -0.418198
upperback 1.25021 -0.502687 3.43235
thorax 0.19594 -0.265562 3.7725
lowerneck -25.9456 -0.911239 9.11073
upperneck 38.8275 -1.05803 -11.2641
head 19.1121 -0.697693 -7.44505
rclavicle 1.54058e-015 -2.38542e-015
rhumerus -23.7283 -24.5636 -5.60479
rradius 32.2296
rwrist -0.937112
rhand -17.3655 -4.23243
rfingers 7.12502
rthumb 8.88267 -34.0255
lclavicle 1.54058e-015 -2.38542e-015
lhumerus -14.682 21.0403 14.9915
lradius 30.6995
lwrist -6.11199
lhand -8.24253 5.05332
lfingers 7.12502
lthumb 17.6755 34.2699
rfemur -8.3647 -4.07394 17.4309
rtibia 30.7856
rfoot -13.4366 -26.0684
rtoes -2.71627
lfemur -6.48405 0.735939 -19.1897
ltibia 28.6112
lfoot -14.6065 20.1328
ltoes -5.49773
266
root 1.35137 17.8292 -29.1529 1.31712 4.87705 -2.53049
lowerback 2.01416 -0.388043 -0.313124
upperback 1.28327 -0.519543 3.44416
thorax 0.22194 -0.273968 3.72557
lowerneck -25.9712 -0.927152 9.10178
upperneck 38.7929 -1.0611 -11.3097
head 19.097 -0.708724 -7.46399
rclavicle -1.70955e-014 -8.74653e-015
rhumerus -23.6351 -24.6808 -5.58217
rradius 32.1459
rwrist -0.844194
rhand -17.3675 -4.29674
rfingers 7.12502
rthumb 8.88077 -34.0899
lclavicle -1.70955e-014 -8.74653e-015
lhumerus -14.6 21.1452 15.043
lradius 30.6319
lwrist -6.11258
lhand -8.26261 5.08768
lfingers 7.12502
lthumb 17.6561 34.306
rfemur -8.34596 -4.08013 17.4272
rtibia 30.8139
rfoot -13.49 -26.1524
rtoes -2.6786
lfemur -6.54233 0.665927 -19.1978
ltibia 28.713
lfoot -14.6502 20.1002
ltoes -5.45868
267
root 1.35814 17.8265 -29.1542 1.30315 5.00107 -2.53113
lowerback 2.0493 -0.403483 -0.21314
upperback 1.30172 -0.538338 3.45288
thorax 0.221568 -0.28294 3.67859
lowerneck -25.9714 -0.931412 9.09522
upperneck 38.7497 -1.05149 -11.3399
head 19.0723 -0.712442 -7.47036
rclavicle -1.03865e-014 -7.95139e-015
rhumerus -23.5444 -24.8112 -5.55948
rradius 32.0496
rwrist -0.743243
rhand -17.3684 -4.34472
rfingers 7.12502
rthumb 8.8799 -34.1379
lclavicle -1.03865e-014 -7.95139e-015
lhumerus -14.5326 21.2381 15.0988
lradius 30.565
lwrist -6.10481
lhand -8.28434 5.10627
lfingers 7.12502
lthumb 17.6352 34.3265
rfemur -8.32654 -4.09442 17.406
rtibia 30.8477
rfoot -13.5483 -26.2288
rtoes -2.63726
lfemur -6.59818 0.585933 -19.2241
ltibia 28.8178
lfoot -14.6901 20.08
ltoes -5.43997
